<?xml version="1.0" standalone="no"?>
<!DOCTYPE svg PUBLIC "-//W3C//DTD SVG 20010904//EN"
 "http://www.w3.org/TR/2001/REC-SVG-20010904/DTD/svg10.dtd">
<svg version="1.0" xmlns="http://www.w3.org/2000/svg"
 width="249.000000pt" height="306.000000pt" viewBox="0 0 249.000000 306.000000"
 preserveAspectRatio="xMidYMid meet">

<g transform="translate(0.000000,306.000000) scale(0.100000,-0.100000)"
fill="#000000" stroke="none">
<path d="M930 2750 c0 -5 5 -10 11 -10 5 0 7 5 4 10 -3 6 -8 10 -11 10 -2 0
-4 -4 -4 -10z"/>
<path d="M1491 2734 c-136 -36 -280 -152 -339 -274 -17 -36 -34 -78 -37 -95
-3 -16 5 -3 18 30 48 125 146 234 262 291 38 19 87 37 108 41 37 6 37 5 37
-29 0 -68 -45 -187 -97 -256 -20 -26 -28 -31 -39 -21 -9 7 -14 8 -14 1 0 -6 6
-13 13 -15 17 -8 -65 -80 -133 -116 -30 -16 -79 -36 -107 -45 -59 -17 -57 -19
-55 54 1 32 0 33 -7 10 -5 -14 -9 -40 -10 -59 -1 -33 -1 -33 37 -27 20 4 75
25 120 46 98 47 191 133 238 220 24 45 33 54 52 52 12 -2 22 2 22 7 0 6 -9 11
-19 11 -17 0 -18 4 -10 33 14 46 27 147 20 151 -3 2 -30 -3 -60 -10z"/>
<path d="M1281 2580 c0 -8 11 -26 24 -39 14 -13 25 -19 25 -14 0 13 -29 50
-30 38 -1 -5 -5 -1 -10 10 -6 13 -9 15 -9 5z"/>
<path d="M1800 2556 c7 -7 13 -7 20 0 6 6 3 10 -10 10 -13 0 -16 -4 -10 -10z"/>
<path d="M1845 2560 c-3 -5 -1 -10 4 -10 6 0 11 5 11 10 0 6 -2 10 -4 10 -3 0
-8 -4 -11 -10z"/>
<path d="M900 2480 c0 -11 6 -20 14 -20 7 0 25 -9 40 -21 20 -16 26 -29 26
-59 0 -30 -6 -43 -26 -59 -15 -12 -33 -21 -40 -21 -8 0 -14 -9 -14 -20 0 -11
4 -20 8 -20 4 0 34 27 67 60 l59 60 -59 60 c-33 33 -63 60 -67 60 -4 0 -8 -9
-8 -20z"/>
<path d="M1255 2460 c-26 -29 -14 -33 14 -4 13 13 19 24 14 24 -6 0 -18 -9
-28 -20z"/>
<path d="M1710 2429 c0 -5 5 -7 10 -4 6 3 10 8 10 11 0 2 -4 4 -10 4 -5 0 -10
-5 -10 -11z"/>
<path d="M1745 2430 c-3 -5 -1 -10 4 -10 6 0 11 5 11 10 0 6 -2 10 -4 10 -3 0
-8 -4 -11 -10z"/>
<path d="M880 2420 c0 -5 5 -10 11 -10 5 0 7 5 4 10 -3 6 -8 10 -11 10 -2 0
-4 -4 -4 -10z"/>
<path d="M1191 2384 c-19 -19 -31 -38 -27 -41 4 -4 13 3 21 15 9 11 23 28 31
37 9 9 14 18 12 20 -2 3 -19 -11 -37 -31z"/>
<path d="M1788 2363 c7 -3 16 -2 19 1 4 3 -2 6 -13 5 -11 0 -14 -3 -6 -6z"/>
<path d="M1725 2300 c-3 -5 1 -10 10 -10 9 0 13 5 10 10 -3 6 -8 10 -10 10 -2
0 -7 -4 -10 -10z"/>
<path d="M698 2183 c23 -2 59 -2 80 0 20 2 1 4 -43 4 -44 0 -61 -2 -37 -4z"/>
<path d="M1505 2180 c138 -8 179 -16 171 -36 -3 -8 -1 -14 3 -14 5 0 11 5 13
12 11 33 278 -123 278 -163 0 -4 -14 -15 -30 -24 -54 -28 -136 -120 -174 -195
-20 -40 -36 -80 -35 -89 0 -9 6 0 14 20 39 106 119 207 204 257 l44 26 -54 51
c-65 60 -166 115 -265 144 -56 16 -95 21 -180 19 l-109 -1 120 -7z"/>
<path d="M545 2157 c-81 -30 -166 -88 -221 -151 -49 -55 -124 -195 -124 -230
1 -12 9 1 19 29 38 107 105 204 174 255 32 23 43 27 55 18 11 -10 13 -8 10 7
-4 22 60 57 146 80 29 8 40 14 26 14 -14 0 -52 -10 -85 -22z"/>
<path d="M868 2164 c29 -7 85 -27 125 -43 106 -43 110 -44 168 -20 30 12 92
35 139 51 47 16 71 27 53 24 -18 -3 -79 -23 -135 -44 -84 -32 -104 -36 -107
-24 -2 11 -5 12 -11 2 -6 -9 -35 -3 -125 29 -65 22 -128 41 -139 40 -12 0 3
-7 32 -15z"/>
<path d="M1050 2130 c0 -5 5 -10 11 -10 5 0 7 5 4 10 -3 6 -8 10 -11 10 -2 0
-4 -4 -4 -10z"/>
<path d="M566 1971 c-4 -6 0 -14 8 -17 9 -3 14 -9 12 -13 -3 -4 3 -20 13 -35
12 -17 21 -24 25 -17 4 6 0 14 -8 17 -9 3 -14 9 -12 13 3 4 -3 20 -13 35 -12
17 -21 24 -25 17z"/>
<path d="M1050 1870 c0 -11 5 -20 10 -20 6 0 10 9 10 20 0 11 -4 20 -10 20 -5
0 -10 -9 -10 -20z"/>
<path d="M1550 1880 c0 -5 5 -10 10 -10 6 0 10 5 10 10 0 6 -4 10 -10 10 -5 0
-10 -4 -10 -10z"/>
<path d="M636 1863 c-6 -14 -5 -15 5 -6 7 7 10 15 7 18 -3 3 -9 -2 -12 -12z"/>
<path d="M1540 1831 c0 -11 -4 -22 -9 -25 -5 -3 -11 -20 -13 -36 -4 -25 -2
-29 8 -18 16 16 35 98 23 98 -5 0 -9 -9 -9 -19z"/>
<path d="M1055 1830 c-3 -5 -1 -10 4 -10 6 0 11 5 11 10 0 6 -2 10 -4 10 -3 0
-8 -4 -11 -10z"/>
<path d="M660 1821 c0 -6 5 -13 10 -16 6 -3 10 1 10 9 0 9 -4 16 -10 16 -5 0
-10 -4 -10 -9z"/>
<path d="M182 1698 c-16 -77 -22 -233 -12 -308 l9 -65 -4 78 c-4 68 -3 77 13
77 16 1 16 1 0 11 -15 8 -17 20 -12 72 3 34 10 88 15 120 13 74 6 86 -9 15z"/>
<path d="M1638 1692 c-41 -5 -34 -22 7 -19 19 1 35 5 35 9 0 11 -13 14 -42 10z"/>
<path d="M440 1680 c0 -5 9 -10 20 -10 11 0 20 5 20 10 0 6 -9 10 -20 10 -11
0 -20 -4 -20 -10z"/>
<path d="M880 1678 c0 -4 7 -8 15 -8 8 0 15 4 15 8 0 5 -7 9 -15 9 -8 0 -15
-4 -15 -9z"/>
<path d="M1260 1679 c0 -5 16 -9 35 -9 19 0 35 4 35 9 0 5 -16 9 -35 9 -19 0
-35 -4 -35 -9z"/>
<path d="M1090 1640 c0 -5 5 -10 10 -10 6 0 10 5 10 10 0 6 -4 10 -10 10 -5 0
-10 -4 -10 -10z"/>
<path d="M1485 1640 c-3 -5 -1 -10 4 -10 6 0 11 5 11 10 0 6 -2 10 -4 10 -3 0
-8 -4 -11 -10z"/>
<path d="M1716 1619 c-39 -197 82 -440 262 -525 44 -21 61 -35 62 -49 1 -19 1
-19 11 -2 6 10 9 20 7 21 -1 1 -29 15 -61 30 -86 41 -179 133 -222 218 -35 72
-44 110 -24 106 6 -2 14 3 16 11 4 9 0 11 -15 7 -15 -5 -21 -1 -26 16 -11 43
-7 76 12 81 15 4 15 5 -2 6 -17 1 -18 7 -12 56 7 60 2 74 -8 24z"/>
<path d="M1050 1590 c0 -5 5 -10 10 -10 6 0 10 5 10 10 0 6 -4 10 -10 10 -5 0
-10 -4 -10 -10z"/>
<path d="M655 1531 c-15 -7 -11 -9 19 -9 26 0 34 3 25 9 -16 10 -18 10 -44 0z"/>
<path d="M830 1532 c0 -4 9 -8 20 -9 11 -1 20 2 20 5 0 4 -9 8 -20 9 -11 1
-20 -2 -20 -5z"/>
<path d="M1130 1497 c0 -14 6 -24 15 -24 16 0 18 7 9 31 -9 24 -24 19 -24 -7z"/>
<path d="M2261 1494 c0 -11 3 -14 6 -6 3 7 2 16 -1 19 -3 4 -6 -2 -5 -13z"/>
<path d="M1016 1485 c-3 -9 0 -15 9 -15 8 0 15 7 15 15 0 8 -4 15 -9 15 -5 0
-11 -7 -15 -15z"/>
<path d="M1092 1481 c4 -13 18 -16 19 -4 0 4 -5 9 -11 12 -7 2 -11 -2 -8 -8z"/>
<path d="M2145 1470 c3 -5 8 -10 11 -10 2 0 4 5 4 10 0 6 -5 10 -11 10 -5 0
-7 -4 -4 -10z"/>
<path d="M1050 1440 c6 -11 13 -20 16 -20 2 0 0 9 -6 20 -6 11 -13 20 -16 20
-2 0 0 -9 6 -20z"/>
<path d="M1855 1440 c-3 -5 -1 -10 4 -10 6 0 11 5 11 10 0 6 -2 10 -4 10 -3 0
-8 -4 -11 -10z"/>
<path d="M1960 1439 c0 -5 5 -7 10 -4 6 3 10 8 10 11 0 2 -4 4 -10 4 -5 0 -10
-5 -10 -11z"/>
<path d="M1050 1400 c0 -5 5 -10 10 -10 6 0 10 5 10 10 0 6 -4 10 -10 10 -5 0
-10 -4 -10 -10z"/>
<path d="M181 1302 c-4 -68 100 -361 176 -495 47 -84 131 -193 198 -256 118
-112 227 -129 380 -58 44 20 75 37 68 37 -6 0 -42 -14 -79 -31 -87 -40 -140
-49 -147 -23 -5 18 -5 18 -6 0 -1 -16 -6 -18 -42 -12 -63 10 -113 41 -185 113
-85 86 -155 185 -210 298 -42 85 -44 91 -27 104 17 13 17 13 0 7 -15 -5 -23 5
-42 48 -22 50 -68 207 -78 266 -4 24 -4 24 -6 2z"/>
<path d="M871 1255 c-16 -8 -20 -15 -12 -19 7 -4 19 -2 28 6 9 7 19 12 22 11
13 -3 11 5 -2 10 -7 3 -24 -1 -36 -8z"/>
<path d="M1300 1230 c0 -5 5 -10 10 -10 6 0 10 5 10 10 0 6 -4 10 -10 10 -5 0
-10 -4 -10 -10z"/>
<path d="M1330 1221 c0 -11 50 -44 57 -37 8 8 -8 27 -18 21 -5 -4 -12 1 -15 9
-7 17 -24 22 -24 7z"/>
<path d="M785 1210 c-3 -5 1 -10 10 -10 9 0 13 5 10 10 -3 6 -8 10 -10 10 -2
0 -7 -4 -10 -10z"/>
<path d="M720 1190 c-8 -5 -11 -12 -7 -17 5 -4 12 -2 16 6 5 7 11 12 15 11 4
-1 12 1 19 3 6 3 3 6 -8 6 -11 0 -27 -3 -35 -9z"/>
<path d="M1434 1158 c-4 -6 -3 -8 4 -4 5 3 12 1 14 -6 3 -8 6 -9 11 -1 4 6 0
13 -8 17 -8 3 -17 0 -21 -6z"/>
<path d="M2017 978 c-9 -23 -15 -43 -13 -45 2 -2 11 15 20 38 9 23 15 43 13
45 -2 2 -11 -15 -20 -38z"/>
<path d="M1974 882 c-12 -22 -27 -36 -37 -36 -20 2 -23 -12 -4 -19 19 -6 -96
-169 -183 -258 -63 -64 -84 -80 -129 -93 -30 -9 -75 -16 -100 -16 -46 1 -65 6
-178 54 -34 14 -83 28 -110 31 -46 5 -45 5 12 -9 34 -8 92 -28 130 -46 50 -23
90 -34 140 -37 95 -7 146 16 242 110 57 55 80 71 99 69 14 -2 24 2 24 8 0 7
-8 10 -20 7 -11 -3 -20 -3 -20 -1 0 2 26 43 59 92 59 88 105 171 99 177 -2 2
-13 -13 -24 -33z"/>
<path d="M1326 874 c-4 -10 2 -14 19 -14 14 0 25 5 25 11 0 5 6 7 13 3 6 -4 9
-3 5 1 -14 15 -56 14 -62 -1z"/>
<path d="M1035 870 c3 -5 11 -10 16 -10 6 0 7 5 4 10 -3 6 -11 10 -16 10 -6 0
-7 -4 -4 -10z"/>
<path d="M1080 870 c20 -13 33 -13 25 0 -3 6 -14 10 -23 10 -15 0 -15 -2 -2
-10z"/>
<path d="M1666 868 c7 -11 74 -10 74 2 0 5 -18 9 -40 8 -21 -1 -37 -5 -34 -10z"/>
<path d="M795 830 c-3 -5 -1 -10 4 -10 6 0 11 5 11 10 0 6 -2 10 -4 10 -3 0
-8 -4 -11 -10z"/>
<path d="M933 783 c0 -9 14 -13 41 -13 31 0 37 3 28 12 -17 17 -69 18 -69 1z"/>
<path d="M1323 793 c-18 -7 -16 -20 2 -20 8 0 15 6 15 14 0 7 -1 13 -2 12 -2
0 -9 -3 -15 -6z"/>
<path d="M1360 786 c0 -9 5 -16 10 -16 6 0 10 4 10 9 0 6 -4 13 -10 16 -5 3
-10 -1 -10 -9z"/>
<path d="M1763 793 c-24 -9 -13 -19 23 -21 26 -2 35 1 32 10 -5 13 -33 18 -55
11z"/>
<path d="M2261 774 c0 -11 3 -14 6 -6 3 7 2 16 -1 19 -3 4 -6 -2 -5 -13z"/>
<path d="M770 739 c0 -5 5 -7 10 -4 6 3 10 8 10 11 0 2 -4 4 -10 4 -5 0 -10
-5 -10 -11z"/>
<path d="M2130 649 c0 -5 5 -7 10 -4 6 3 10 8 10 11 0 2 -4 4 -10 4 -5 0 -10
-5 -10 -11z"/>
<path d="M2168 643 c6 -2 18 -2 25 0 6 3 1 5 -13 5 -14 0 -19 -2 -12 -5z"/>
<path d="M735 581 c3 -11 1 -22 -5 -26 -11 -7 -4 -25 9 -25 5 0 8 16 8 35 -1
19 -5 35 -10 35 -4 0 -6 -9 -2 -19z"/>
<path d="M1483 565 c-1 -19 3 -35 8 -35 5 0 9 16 7 35 -1 19 -5 35 -8 35 -3 0
-6 -16 -7 -35z"/>
<path d="M2160 580 c0 -5 5 -10 10 -10 6 0 10 5 10 10 0 6 -4 10 -10 10 -5 0
-10 -4 -10 -10z"/>
<path d="M1143 553 c9 -2 17 -12 17 -21 0 -15 2 -15 10 -2 16 24 12 30 -17 29
-17 -1 -21 -3 -10 -6z"/>
<path d="M1035 540 c-13 -6 -2 -7 30 -3 28 3 52 7 54 9 9 8 -65 2 -84 -6z"/>
<path d="M730 510 c0 -5 5 -10 10 -10 6 0 10 5 10 10 0 6 -4 10 -10 10 -5 0
-10 -4 -10 -10z"/>
<path d="M1480 510 c0 -5 5 -10 10 -10 6 0 10 5 10 10 0 6 -4 10 -10 10 -5 0
-10 -4 -10 -10z"/>
<path d="M2025 510 c3 -5 10 -10 16 -10 5 0 9 5 9 10 0 6 -7 10 -16 10 -8 0
-12 -4 -9 -10z"/>
<path d="M2108 513 c7 -3 16 -2 19 1 4 3 -2 6 -13 5 -11 0 -14 -3 -6 -6z"/>
<path d="M900 390 c0 -11 6 -20 14 -20 7 0 25 -9 40 -21 20 -16 26 -29 26 -59
0 -30 -6 -43 -26 -59 -15 -12 -33 -21 -40 -21 -8 0 -14 -9 -14 -20 0 -11 4
-20 8 -20 4 0 34 27 67 60 l59 60 -59 60 c-33 33 -63 60 -67 60 -4 0 -8 -9 -8
-20z"/>
<path d="M880 250 c0 -5 5 -10 10 -10 6 0 10 5 10 10 0 6 -4 10 -10 10 -5 0
-10 -4 -10 -10z"/>
<path d="M1765 228 c-4 -14 -8 -18 -12 -10 -2 6 -16 12 -29 12 -21 0 -24 -4
-23 -37 0 -21 3 -32 6 -25 2 6 13 12 24 12 10 0 19 5 19 11 0 8 5 8 15 -1 13
-11 15 -7 15 24 0 41 -5 46 -15 14z m-25 -23 c0 -8 -7 -15 -15 -15 -8 0 -15 7
-15 15 0 8 7 15 15 15 8 0 15 -7 15 -15z"/>
<path d="M1594 221 c19 -7 19 -8 -2 -13 -30 -8 -28 -28 3 -28 20 0 25 5 25 25
0 19 -5 25 -22 24 -21 0 -22 -1 -4 -8z"/>
<path d="M1630 196 c0 -20 5 -36 10 -36 6 0 10 4 10 9 0 5 9 11 21 14 31 8 21
41 -14 45 -25 3 -27 1 -27 -32z m42 9 c0 -5 -5 -11 -11 -13 -6 -2 -11 4 -11
13 0 9 5 15 11 13 6 -2 11 -8 11 -13z"/>
<path d="M1797 224 c-16 -17 -7 -44 16 -43 21 0 21 1 2 9 -19 8 -19 9 3 9 14
1 22 6 20 14 -5 14 -31 21 -41 11z"/>
<path d="M120 180 c0 -13 5 -20 13 -17 6 2 12 10 12 17 0 7 -6 15 -12 18 -8 2
-13 -5 -13 -18z"/>
<path d="M703 190 c6 -22 37 -25 37 -3 0 15 -2 16 -10 3 -9 -13 -11 -13 -21 0
-9 13 -10 13 -6 0z"/>
<path d="M555 180 c-3 -5 -1 -10 4 -10 6 0 11 5 11 10 0 6 -2 10 -4 10 -3 0
-8 -4 -11 -10z"/>
<path d="M1425 154 c-19 -46 -19 -47 4 -32 15 9 23 9 35 -1 9 -8 16 -11 16 -7
0 12 -29 76 -34 76 -3 0 -13 -16 -21 -36z"/>
<path d="M1653 113 c9 -2 23 -2 30 0 6 3 -1 5 -18 5 -16 0 -22 -2 -12 -5z"/>
</g>
</svg>
